<mxfile host="app.diagrams.net" modified="2023-11-05T10:33:54.764Z" agent="Mozilla/5.0 (Windows NT 10.0; Win64; x64) AppleWebKit/537.36 (KHTML, like Gecko) Chrome/119.0.0.0 Safari/537.36" etag="4Pp1PsK06XIIm6XUWRGm" version="22.0.8" type="device">
  <diagram name="PÃ¡gina-1" id="UBEua1ropiXV4nsqK9QP">
    <mxGraphModel dx="2100" dy="1174" grid="1" gridSize="10" guides="1" tooltips="1" connect="1" arrows="1" fold="1" page="1" pageScale="1" pageWidth="827" pageHeight="1169" math="0" shadow="0">
      <root>
        <mxCell id="0" />
        <mxCell id="1" parent="0" />
        <mxCell id="aVk3KjRlflFWPaBtRKJj-46" value="&lt;p style=&quot;line-height: 100%;&quot;&gt;&amp;lt;&amp;lt;component&amp;gt;&amp;gt;&lt;/p&gt;&lt;p style=&quot;line-height: 100%;&quot;&gt;&lt;span style=&quot;font-size: 15px;&quot;&gt;PassagemController&lt;/span&gt;&lt;/p&gt;" style="shape=umlLifeline;perimeter=lifelinePerimeter;whiteSpace=wrap;html=1;container=1;dropTarget=0;collapsible=0;recursiveResize=0;outlineConnect=0;portConstraint=eastwest;newEdgeStyle={&quot;curved&quot;:0,&quot;rounded&quot;:0};size=90;" vertex="1" parent="1">
          <mxGeometry x="370.63" width="168.75" height="1300" as="geometry" />
        </mxCell>
        <mxCell id="aVk3KjRlflFWPaBtRKJj-47" value="&lt;p style=&quot;line-height: 100%;&quot;&gt;&amp;lt;&amp;lt;component&amp;gt;&amp;gt;&lt;/p&gt;&lt;p style=&quot;line-height: 100%;&quot;&gt;&lt;span style=&quot;font-size: 15px;&quot;&gt;RoutePassagem&lt;/span&gt;&lt;/p&gt;" style="shape=umlLifeline;perimeter=lifelinePerimeter;whiteSpace=wrap;html=1;container=1;dropTarget=0;collapsible=0;recursiveResize=0;outlineConnect=0;portConstraint=eastwest;newEdgeStyle={&quot;curved&quot;:0,&quot;rounded&quot;:0};size=90;" vertex="1" parent="1">
          <mxGeometry x="132.5" width="125" height="1280" as="geometry" />
        </mxCell>
        <mxCell id="aVk3KjRlflFWPaBtRKJj-48" value="" style="html=1;points=[[0,0,0,0,5],[0,1,0,0,-5],[1,0,0,0,5],[1,1,0,0,-5]];perimeter=orthogonalPerimeter;outlineConnect=0;targetShapes=umlLifeline;portConstraint=eastwest;newEdgeStyle={&quot;curved&quot;:0,&quot;rounded&quot;:0};" vertex="1" parent="1">
          <mxGeometry x="190" y="130" width="10" height="1050" as="geometry" />
        </mxCell>
        <mxCell id="aVk3KjRlflFWPaBtRKJj-49" value="" style="html=1;points=[[0,0,0,0,5],[0,1,0,0,-5],[1,0,0,0,5],[1,1,0,0,-5]];perimeter=orthogonalPerimeter;outlineConnect=0;targetShapes=umlLifeline;portConstraint=eastwest;newEdgeStyle={&quot;curved&quot;:0,&quot;rounded&quot;:0};" vertex="1" parent="1">
          <mxGeometry x="450" y="170" width="10" height="850" as="geometry" />
        </mxCell>
        <mxCell id="aVk3KjRlflFWPaBtRKJj-50" value="&lt;p style=&quot;line-height: 100%;&quot;&gt;&amp;lt;&amp;lt;component&amp;gt;&amp;gt;&lt;br&gt;&lt;/p&gt;&lt;p style=&quot;line-height: 100%;&quot;&gt;&lt;span style=&quot;font-size: 15px;&quot;&gt;PassagemService&lt;/span&gt;&lt;/p&gt;" style="shape=umlLifeline;perimeter=lifelinePerimeter;whiteSpace=wrap;html=1;container=1;dropTarget=0;collapsible=0;recursiveResize=0;outlineConnect=0;portConstraint=eastwest;newEdgeStyle={&quot;curved&quot;:0,&quot;rounded&quot;:0};size=90;" vertex="1" parent="1">
          <mxGeometry x="766.25" width="152.5" height="1260" as="geometry" />
        </mxCell>
        <mxCell id="aVk3KjRlflFWPaBtRKJj-51" value="&lt;p style=&quot;line-height: 100%;&quot;&gt;&amp;lt;&amp;lt;component&amp;gt;&amp;gt;&lt;br&gt;&lt;/p&gt;&lt;p style=&quot;line-height: 100%;&quot;&gt;&lt;span style=&quot;font-size: 15px;&quot;&gt;IEditarPassagemDTO&lt;/span&gt;&lt;/p&gt;" style="shape=umlLifeline;perimeter=lifelinePerimeter;whiteSpace=wrap;html=1;container=1;dropTarget=0;collapsible=0;recursiveResize=0;outlineConnect=0;portConstraint=eastwest;newEdgeStyle={&quot;curved&quot;:0,&quot;rounded&quot;:0};size=100;" vertex="1" parent="1">
          <mxGeometry x="620" y="160" width="160" height="100" as="geometry" />
        </mxCell>
        <mxCell id="aVk3KjRlflFWPaBtRKJj-52" value="&lt;p style=&quot;line-height: 100%;&quot;&gt;&amp;lt;&amp;lt;component&amp;gt;&amp;gt;&lt;br&gt;&lt;/p&gt;&lt;p style=&quot;line-height: 100%;&quot;&gt;&lt;span style=&quot;font-size: 15px;&quot;&gt;PassagemRepo&lt;/span&gt;&lt;/p&gt;" style="shape=umlLifeline;perimeter=lifelinePerimeter;whiteSpace=wrap;html=1;container=1;dropTarget=0;collapsible=0;recursiveResize=0;outlineConnect=0;portConstraint=eastwest;newEdgeStyle={&quot;curved&quot;:0,&quot;rounded&quot;:0};size=90;" vertex="1" parent="1">
          <mxGeometry x="1555" width="150" height="1280" as="geometry" />
        </mxCell>
        <mxCell id="aVk3KjRlflFWPaBtRKJj-53" value="" style="html=1;points=[[0,0,0,0,5],[0,1,0,0,-5],[1,0,0,0,5],[1,1,0,0,-5]];perimeter=orthogonalPerimeter;outlineConnect=0;targetShapes=umlLifeline;portConstraint=eastwest;newEdgeStyle={&quot;curved&quot;:0,&quot;rounded&quot;:0};" vertex="1" parent="aVk3KjRlflFWPaBtRKJj-52">
          <mxGeometry x="70" y="310" width="10" height="80" as="geometry" />
        </mxCell>
        <mxCell id="aVk3KjRlflFWPaBtRKJj-54" value="&lt;p style=&quot;line-height: 100%;&quot;&gt;&amp;lt;&amp;lt;component&amp;gt;&amp;gt;&lt;br&gt;&lt;/p&gt;&lt;p style=&quot;line-height: 100%;&quot;&gt;&lt;span style=&quot;font-size: 15px;&quot;&gt;Passagem&lt;/span&gt;&lt;/p&gt;" style="shape=umlLifeline;perimeter=lifelinePerimeter;whiteSpace=wrap;html=1;container=1;dropTarget=0;collapsible=0;recursiveResize=0;outlineConnect=0;portConstraint=eastwest;newEdgeStyle={&quot;curved&quot;:0,&quot;rounded&quot;:0};size=90;" vertex="1" parent="1">
          <mxGeometry x="1320" y="620" width="125" height="650" as="geometry" />
        </mxCell>
        <mxCell id="aVk3KjRlflFWPaBtRKJj-55" value="editarPassagem(json)" style="html=1;verticalAlign=bottom;endArrow=block;curved=0;rounded=0;entryX=0;entryY=0;entryDx=0;entryDy=5;entryPerimeter=0;" edge="1" parent="1" source="aVk3KjRlflFWPaBtRKJj-48" target="aVk3KjRlflFWPaBtRKJj-49">
          <mxGeometry width="80" relative="1" as="geometry">
            <mxPoint x="137.5" y="180" as="sourcePoint" />
            <mxPoint x="417.5" y="180" as="targetPoint" />
          </mxGeometry>
        </mxCell>
        <mxCell id="aVk3KjRlflFWPaBtRKJj-56" value="editarPassagem(json)" style="html=1;verticalAlign=bottom;endArrow=block;curved=0;rounded=0;" edge="1" parent="1" source="aVk3KjRlflFWPaBtRKJj-49">
          <mxGeometry width="80" relative="1" as="geometry">
            <mxPoint x="470" y="210.0000000000001" as="sourcePoint" />
            <mxPoint x="620" y="210" as="targetPoint" />
          </mxGeometry>
        </mxCell>
        <mxCell id="aVk3KjRlflFWPaBtRKJj-57" value="" style="html=1;points=[[0,0,0,0,5],[0,1,0,0,-5],[1,0,0,0,5],[1,1,0,0,-5]];perimeter=orthogonalPerimeter;outlineConnect=0;targetShapes=umlLifeline;portConstraint=eastwest;newEdgeStyle={&quot;curved&quot;:0,&quot;rounded&quot;:0};" vertex="1" parent="1">
          <mxGeometry x="837.5" y="290" width="10" height="710" as="geometry" />
        </mxCell>
        <mxCell id="aVk3KjRlflFWPaBtRKJj-58" value="editarPassagem(dto:&amp;nbsp;IEditarPassagemDTO)" style="html=1;verticalAlign=bottom;endArrow=block;curved=0;rounded=0;" edge="1" parent="1" target="aVk3KjRlflFWPaBtRKJj-57">
          <mxGeometry width="80" relative="1" as="geometry">
            <mxPoint x="460" y="301.0000000000001" as="sourcePoint" />
            <mxPoint x="665" y="300" as="targetPoint" />
          </mxGeometry>
        </mxCell>
        <mxCell id="aVk3KjRlflFWPaBtRKJj-59" value="criarPassagem(dto: PassagemDTO)" style="html=1;verticalAlign=bottom;endArrow=block;curved=0;rounded=0;entryX=0;entryY=0.077;entryDx=0;entryDy=0;entryPerimeter=0;" edge="1" parent="1" target="aVk3KjRlflFWPaBtRKJj-54">
          <mxGeometry x="-0.0035" width="80" relative="1" as="geometry">
            <mxPoint x="847.5" y="670.0000000000001" as="sourcePoint" />
            <mxPoint x="1310" y="670" as="targetPoint" />
            <mxPoint as="offset" />
          </mxGeometry>
        </mxCell>
        <mxCell id="aVk3KjRlflFWPaBtRKJj-60" value="save(passagem: Passagem)" style="html=1;verticalAlign=bottom;endArrow=block;curved=0;rounded=0;" edge="1" parent="1" source="aVk3KjRlflFWPaBtRKJj-57">
          <mxGeometry x="-0.0035" width="80" relative="1" as="geometry">
            <mxPoint x="942.5" y="760" as="sourcePoint" />
            <mxPoint x="1625" y="760" as="targetPoint" />
            <mxPoint as="offset" />
          </mxGeometry>
        </mxCell>
        <mxCell id="aVk3KjRlflFWPaBtRKJj-61" value="" style="html=1;points=[[0,0,0,0,5],[0,1,0,0,-5],[1,0,0,0,5],[1,1,0,0,-5]];perimeter=orthogonalPerimeter;outlineConnect=0;targetShapes=umlLifeline;portConstraint=eastwest;newEdgeStyle={&quot;curved&quot;:0,&quot;rounded&quot;:0};" vertex="1" parent="1">
          <mxGeometry x="1625" y="750" width="10" height="210" as="geometry" />
        </mxCell>
        <mxCell id="aVk3KjRlflFWPaBtRKJj-62" value="PUT(json)" style="html=1;verticalAlign=bottom;startArrow=oval;startFill=1;endArrow=block;startSize=8;curved=0;rounded=0;" edge="1" parent="1">
          <mxGeometry x="0.0053" width="60" relative="1" as="geometry">
            <mxPoint x="80" y="140" as="sourcePoint" />
            <mxPoint x="190" y="140" as="targetPoint" />
            <mxPoint as="offset" />
          </mxGeometry>
        </mxCell>
        <mxCell id="aVk3KjRlflFWPaBtRKJj-63" value="" style="ellipse;html=1;" vertex="1" parent="1">
          <mxGeometry x="75" y="1070" width="10" height="10" as="geometry" />
        </mxCell>
        <mxCell id="aVk3KjRlflFWPaBtRKJj-64" value="&lt;p style=&quot;line-height: 100%;&quot;&gt;&amp;lt;&amp;lt;component&amp;gt;&amp;gt;&lt;br&gt;&lt;/p&gt;&lt;p style=&quot;line-height: 100%;&quot;&gt;&lt;span style=&quot;font-size: 15px;&quot;&gt;EdificioRepo&lt;/span&gt;&lt;/p&gt;" style="shape=umlLifeline;perimeter=lifelinePerimeter;whiteSpace=wrap;html=1;container=1;dropTarget=0;collapsible=0;recursiveResize=0;outlineConnect=0;portConstraint=eastwest;newEdgeStyle={&quot;curved&quot;:0,&quot;rounded&quot;:0};size=90;" vertex="1" parent="1">
          <mxGeometry x="942.5" width="125" height="1260" as="geometry" />
        </mxCell>
        <mxCell id="aVk3KjRlflFWPaBtRKJj-65" value="return edificio: Edificio" style="html=1;verticalAlign=bottom;endArrow=open;dashed=1;endSize=8;curved=0;rounded=0;" edge="1" parent="aVk3KjRlflFWPaBtRKJj-64">
          <mxGeometry relative="1" as="geometry">
            <mxPoint x="58.50000000000023" y="504" as="sourcePoint" />
            <mxPoint x="-93.99999999999977" y="504" as="targetPoint" />
          </mxGeometry>
        </mxCell>
        <mxCell id="aVk3KjRlflFWPaBtRKJj-66" value="" style="html=1;points=[[0,0,0,0,5],[0,1,0,0,-5],[1,0,0,0,5],[1,1,0,0,-5]];perimeter=orthogonalPerimeter;outlineConnect=0;targetShapes=umlLifeline;portConstraint=eastwest;newEdgeStyle={&quot;curved&quot;:0,&quot;rounded&quot;:0};" vertex="1" parent="aVk3KjRlflFWPaBtRKJj-64">
          <mxGeometry x="58.5" y="430" width="10" height="80" as="geometry" />
        </mxCell>
        <mxCell id="aVk3KjRlflFWPaBtRKJj-67" value="findByDomainId(codigo: string)" style="html=1;verticalAlign=bottom;endArrow=block;curved=0;rounded=0;" edge="1" parent="aVk3KjRlflFWPaBtRKJj-64" target="aVk3KjRlflFWPaBtRKJj-66">
          <mxGeometry x="-0.0035" width="80" relative="1" as="geometry">
            <mxPoint x="-94" y="439.33" as="sourcePoint" />
            <mxPoint x="68.5" y="439" as="targetPoint" />
            <mxPoint as="offset" />
          </mxGeometry>
        </mxCell>
        <mxCell id="aVk3KjRlflFWPaBtRKJj-68" value="return passagem: Passagem" style="html=1;verticalAlign=bottom;endArrow=open;dashed=1;endSize=8;curved=0;rounded=0;" edge="1" parent="aVk3KjRlflFWPaBtRKJj-64" source="aVk3KjRlflFWPaBtRKJj-53">
          <mxGeometry relative="1" as="geometry">
            <mxPoint x="57.50000000000023" y="384" as="sourcePoint" />
            <mxPoint x="-94.99999999999977" y="384" as="targetPoint" />
          </mxGeometry>
        </mxCell>
        <mxCell id="aVk3KjRlflFWPaBtRKJj-69" value="findByDomainId(id: number)" style="html=1;verticalAlign=bottom;endArrow=block;curved=0;rounded=0;" edge="1" parent="aVk3KjRlflFWPaBtRKJj-64" target="aVk3KjRlflFWPaBtRKJj-53">
          <mxGeometry x="-0.0035" width="80" relative="1" as="geometry">
            <mxPoint x="-95" y="319.33" as="sourcePoint" />
            <mxPoint x="67.5" y="319" as="targetPoint" />
            <mxPoint as="offset" />
          </mxGeometry>
        </mxCell>
        <mxCell id="aVk3KjRlflFWPaBtRKJj-70" value="&lt;p style=&quot;line-height: 100%;&quot;&gt;&amp;lt;&amp;lt;component&amp;gt;&amp;gt;&lt;br&gt;&lt;/p&gt;&lt;p style=&quot;line-height: 100%;&quot;&gt;&lt;span style=&quot;font-size: 15px;&quot;&gt;PassagemRepo&lt;/span&gt;&lt;/p&gt;" style="shape=umlLifeline;perimeter=lifelinePerimeter;whiteSpace=wrap;html=1;container=1;dropTarget=0;collapsible=0;recursiveResize=0;outlineConnect=0;portConstraint=eastwest;newEdgeStyle={&quot;curved&quot;:0,&quot;rounded&quot;:0};size=90;" vertex="1" parent="1">
          <mxGeometry x="1555" y="1251" width="150" height="90" as="geometry" />
        </mxCell>
        <mxCell id="aVk3KjRlflFWPaBtRKJj-71" value="&lt;p style=&quot;line-height: 100%;&quot;&gt;&amp;lt;&amp;lt;component&amp;gt;&amp;gt;&lt;br&gt;&lt;/p&gt;&lt;p style=&quot;line-height: 100%;&quot;&gt;&lt;span style=&quot;font-size: 15px;&quot;&gt;Passagem&lt;/span&gt;&lt;/p&gt;" style="shape=umlLifeline;perimeter=lifelinePerimeter;whiteSpace=wrap;html=1;container=1;dropTarget=0;collapsible=0;recursiveResize=0;outlineConnect=0;portConstraint=eastwest;newEdgeStyle={&quot;curved&quot;:0,&quot;rounded&quot;:0};size=90;" vertex="1" parent="1">
          <mxGeometry x="1320" y="1251" width="125" height="90" as="geometry" />
        </mxCell>
        <mxCell id="aVk3KjRlflFWPaBtRKJj-72" value="" style="html=1;verticalAlign=bottom;labelBackgroundColor=none;endArrow=block;endFill=1;dashed=1;rounded=0;" edge="1" parent="1">
          <mxGeometry width="160" relative="1" as="geometry">
            <mxPoint x="837.5" y="990" as="sourcePoint" />
            <mxPoint x="460" y="990" as="targetPoint" />
          </mxGeometry>
        </mxCell>
        <mxCell id="aVk3KjRlflFWPaBtRKJj-73" value="&lt;p style=&quot;line-height: 100%;&quot;&gt;&amp;lt;&amp;lt;component&amp;gt;&amp;gt;&lt;br&gt;&lt;/p&gt;&lt;p style=&quot;line-height: 100%;&quot;&gt;Edificio&lt;br&gt;&lt;/p&gt;" style="shape=umlLifeline;perimeter=lifelinePerimeter;whiteSpace=wrap;html=1;container=1;dropTarget=0;collapsible=0;recursiveResize=0;outlineConnect=0;portConstraint=eastwest;newEdgeStyle={&quot;curved&quot;:0,&quot;rounded&quot;:0};size=90;" vertex="1" parent="1">
          <mxGeometry x="1092.5" y="1251" width="125" height="89" as="geometry" />
        </mxCell>
        <mxCell id="aVk3KjRlflFWPaBtRKJj-74" value="" style="html=1;verticalAlign=bottom;labelBackgroundColor=none;endArrow=block;endFill=1;dashed=1;rounded=0;exitX=0;exitY=1;exitDx=0;exitDy=-5;exitPerimeter=0;" edge="1" parent="1">
          <mxGeometry width="160" relative="1" as="geometry">
            <mxPoint x="450" y="1013" as="sourcePoint" />
            <mxPoint x="200" y="1012" as="targetPoint" />
          </mxGeometry>
        </mxCell>
        <mxCell id="aVk3KjRlflFWPaBtRKJj-75" value="" style="html=1;verticalAlign=bottom;labelBackgroundColor=none;endArrow=block;endFill=1;dashed=1;rounded=0;entryX=1;entryY=0.5;entryDx=0;entryDy=0;" edge="1" parent="1" target="aVk3KjRlflFWPaBtRKJj-63">
          <mxGeometry width="160" relative="1" as="geometry">
            <mxPoint x="190" y="1075" as="sourcePoint" />
            <mxPoint x="458" y="1115" as="targetPoint" />
          </mxGeometry>
        </mxCell>
        <mxCell id="aVk3KjRlflFWPaBtRKJj-76" value="" style="html=1;verticalAlign=bottom;labelBackgroundColor=none;endArrow=block;endFill=1;dashed=1;rounded=0;" edge="1" parent="1">
          <mxGeometry width="160" relative="1" as="geometry">
            <mxPoint x="1625" y="943" as="sourcePoint" />
            <mxPoint x="847.5" y="943" as="targetPoint" />
          </mxGeometry>
        </mxCell>
        <mxCell id="aVk3KjRlflFWPaBtRKJj-77" value="return&amp;nbsp;passagem: Passagem" style="text;html=1;align=center;verticalAlign=middle;resizable=0;points=[];autosize=1;strokeColor=none;fillColor=none;" vertex="1" parent="1">
          <mxGeometry x="1152.5" y="920" width="180" height="30" as="geometry" />
        </mxCell>
        <mxCell id="aVk3KjRlflFWPaBtRKJj-78" value="return&amp;nbsp;dto: PassagemDTO" style="text;html=1;align=center;verticalAlign=middle;resizable=0;points=[];autosize=1;strokeColor=none;fillColor=none;" vertex="1" parent="1">
          <mxGeometry x="572" y="960" width="160" height="30" as="geometry" />
        </mxCell>
        <mxCell id="aVk3KjRlflFWPaBtRKJj-79" value="return&amp;nbsp;dto: PassagemDTO" style="text;html=1;align=center;verticalAlign=middle;resizable=0;points=[];autosize=1;strokeColor=none;fillColor=none;" vertex="1" parent="1">
          <mxGeometry x="235" y="980" width="160" height="30" as="geometry" />
        </mxCell>
        <mxCell id="aVk3KjRlflFWPaBtRKJj-80" value="200 OK" style="text;html=1;align=center;verticalAlign=middle;resizable=0;points=[];autosize=1;strokeColor=none;fillColor=none;" vertex="1" parent="1">
          <mxGeometry x="111" y="1048" width="60" height="30" as="geometry" />
        </mxCell>
        <mxCell id="aVk3KjRlflFWPaBtRKJj-81" value="&lt;p style=&quot;line-height: 100%;&quot;&gt;&amp;lt;&amp;lt;component&amp;gt;&amp;gt;&lt;br&gt;&lt;/p&gt;&lt;p style=&quot;line-height: 100%;&quot;&gt;EdificioRepo&lt;br&gt;&lt;/p&gt;" style="shape=umlLifeline;perimeter=lifelinePerimeter;whiteSpace=wrap;html=1;container=1;dropTarget=0;collapsible=0;recursiveResize=0;outlineConnect=0;portConstraint=eastwest;newEdgeStyle={&quot;curved&quot;:0,&quot;rounded&quot;:0};size=90;" vertex="1" parent="1">
          <mxGeometry x="942.5" y="1250" width="125" height="90" as="geometry" />
        </mxCell>
        <mxCell id="aVk3KjRlflFWPaBtRKJj-82" value="&lt;p style=&quot;line-height: 100%;&quot;&gt;&amp;lt;&amp;lt;component&amp;gt;&amp;gt;&lt;br&gt;&lt;/p&gt;&lt;p style=&quot;line-height: 100%;&quot;&gt;&lt;span style=&quot;font-size: 15px;&quot;&gt;PassagemService&lt;/span&gt;&lt;/p&gt;" style="shape=umlLifeline;perimeter=lifelinePerimeter;whiteSpace=wrap;html=1;container=1;dropTarget=0;collapsible=0;recursiveResize=0;outlineConnect=0;portConstraint=eastwest;newEdgeStyle={&quot;curved&quot;:0,&quot;rounded&quot;:0};size=90;" vertex="1" parent="1">
          <mxGeometry x="770" y="1250" width="150" height="90" as="geometry" />
        </mxCell>
        <mxCell id="aVk3KjRlflFWPaBtRKJj-83" value="&lt;p style=&quot;line-height: 100%;&quot;&gt;&amp;lt;&amp;lt;component&amp;gt;&amp;gt;&lt;br&gt;&lt;/p&gt;&lt;p style=&quot;line-height: 100%;&quot;&gt;&lt;span style=&quot;font-size: 15px;&quot;&gt;PassagemDTO&lt;/span&gt;&lt;/p&gt;" style="shape=umlLifeline;perimeter=lifelinePerimeter;whiteSpace=wrap;html=1;container=1;dropTarget=0;collapsible=0;recursiveResize=0;outlineConnect=0;portConstraint=eastwest;newEdgeStyle={&quot;curved&quot;:0,&quot;rounded&quot;:0};size=100;" vertex="1" parent="1">
          <mxGeometry x="620" y="1250" width="140" height="90" as="geometry" />
        </mxCell>
        <mxCell id="aVk3KjRlflFWPaBtRKJj-84" value="&lt;p style=&quot;line-height: 100%;&quot;&gt;&amp;lt;&amp;lt;component&amp;gt;&amp;gt;&lt;/p&gt;&lt;p style=&quot;line-height: 100%;&quot;&gt;&lt;span style=&quot;font-size: 15px;&quot;&gt;PassagemController&lt;/span&gt;&lt;/p&gt;" style="shape=umlLifeline;perimeter=lifelinePerimeter;whiteSpace=wrap;html=1;container=1;dropTarget=0;collapsible=0;recursiveResize=0;outlineConnect=0;portConstraint=eastwest;newEdgeStyle={&quot;curved&quot;:0,&quot;rounded&quot;:0};size=90;" vertex="1" parent="1">
          <mxGeometry x="370.62" y="1250" width="168.75" height="90" as="geometry" />
        </mxCell>
        <mxCell id="aVk3KjRlflFWPaBtRKJj-85" value="&lt;p style=&quot;line-height: 100%;&quot;&gt;&amp;lt;&amp;lt;component&amp;gt;&amp;gt;&lt;/p&gt;&lt;p style=&quot;line-height: 100%;&quot;&gt;&lt;span style=&quot;font-size: 15px;&quot;&gt;RoutePassagem&lt;/span&gt;&lt;/p&gt;" style="shape=umlLifeline;perimeter=lifelinePerimeter;whiteSpace=wrap;html=1;container=1;dropTarget=0;collapsible=0;recursiveResize=0;outlineConnect=0;portConstraint=eastwest;newEdgeStyle={&quot;curved&quot;:0,&quot;rounded&quot;:0};size=90;" vertex="1" parent="1">
          <mxGeometry x="132.5" y="1251" width="125" height="89" as="geometry" />
        </mxCell>
        <mxCell id="aVk3KjRlflFWPaBtRKJj-86" value="alt" style="shape=umlFrame;whiteSpace=wrap;html=1;pointerEvents=0;recursiveResize=0;container=1;collapsible=0;width=100;height=20;" vertex="1" parent="1">
          <mxGeometry y="1030" width="300" height="140" as="geometry" />
        </mxCell>
        <mxCell id="aVk3KjRlflFWPaBtRKJj-87" value="" style="line;strokeWidth=1;dashed=1;labelPosition=center;verticalLabelPosition=bottom;align=left;verticalAlign=top;spacingLeft=20;spacingTop=15;html=1;whiteSpace=wrap;" vertex="1" parent="aVk3KjRlflFWPaBtRKJj-86">
          <mxGeometry y="70" width="300" height="10" as="geometry" />
        </mxCell>
        <mxCell id="aVk3KjRlflFWPaBtRKJj-88" value="400&amp;nbsp;Bad Request" style="text;html=1;align=center;verticalAlign=middle;resizable=0;points=[];autosize=1;strokeColor=none;fillColor=none;" vertex="1" parent="aVk3KjRlflFWPaBtRKJj-86">
          <mxGeometry x="86" y="90" width="120" height="30" as="geometry" />
        </mxCell>
        <mxCell id="aVk3KjRlflFWPaBtRKJj-89" value="" style="html=1;verticalAlign=bottom;labelBackgroundColor=none;endArrow=block;endFill=1;dashed=1;rounded=0;entryX=1;entryY=0.5;entryDx=0;entryDy=0;" edge="1" parent="aVk3KjRlflFWPaBtRKJj-86" target="aVk3KjRlflFWPaBtRKJj-90">
          <mxGeometry width="160" relative="1" as="geometry">
            <mxPoint x="189" y="119" as="sourcePoint" />
            <mxPoint x="459" y="159" as="targetPoint" />
            <Array as="points">
              <mxPoint x="119" y="119" />
            </Array>
          </mxGeometry>
        </mxCell>
        <mxCell id="aVk3KjRlflFWPaBtRKJj-90" value="" style="ellipse;html=1;" vertex="1" parent="aVk3KjRlflFWPaBtRKJj-86">
          <mxGeometry x="76" y="114" width="10" height="10" as="geometry" />
        </mxCell>
        <mxCell id="aVk3KjRlflFWPaBtRKJj-91" value="loop" style="shape=umlFrame;whiteSpace=wrap;html=1;pointerEvents=0;recursiveResize=0;container=1;collapsible=0;width=90;height=15;" vertex="1" parent="1">
          <mxGeometry x="820" y="400" width="210" height="130" as="geometry" />
        </mxCell>
        <mxCell id="aVk3KjRlflFWPaBtRKJj-92" value="&lt;p style=&quot;line-height: 100%;&quot;&gt;&amp;lt;&amp;lt;component&amp;gt;&amp;gt;&lt;br&gt;&lt;/p&gt;&lt;p style=&quot;line-height: 100%;&quot;&gt;&lt;span style=&quot;font-size: 15px;&quot;&gt;Edificio&lt;/span&gt;&lt;/p&gt;" style="shape=umlLifeline;perimeter=lifelinePerimeter;whiteSpace=wrap;html=1;container=1;dropTarget=0;collapsible=0;recursiveResize=0;outlineConnect=0;portConstraint=eastwest;newEdgeStyle={&quot;curved&quot;:0,&quot;rounded&quot;:0};size=90;" vertex="1" parent="1">
          <mxGeometry x="1092.5" width="125" height="1260" as="geometry" />
        </mxCell>
        <mxCell id="aVk3KjRlflFWPaBtRKJj-93" value="" style="html=1;points=[[0,0,0,0,5],[0,1,0,0,-5],[1,0,0,0,5],[1,1,0,0,-5]];perimeter=orthogonalPerimeter;outlineConnect=0;targetShapes=umlLifeline;portConstraint=eastwest;newEdgeStyle={&quot;curved&quot;:0,&quot;rounded&quot;:0};" vertex="1" parent="aVk3KjRlflFWPaBtRKJj-92">
          <mxGeometry x="57.5" y="550" width="10" height="70" as="geometry" />
        </mxCell>
        <mxCell id="aVk3KjRlflFWPaBtRKJj-96" value="verificarSePisoExiste(numeroPiso: number)" style="html=1;verticalAlign=bottom;endArrow=block;curved=0;rounded=0;" edge="1" parent="1">
          <mxGeometry x="-0.0035" width="80" relative="1" as="geometry">
            <mxPoint x="848.5" y="563.3299999999999" as="sourcePoint" />
            <mxPoint x="1150" y="563" as="targetPoint" />
            <mxPoint as="offset" />
          </mxGeometry>
        </mxCell>
        <mxCell id="aVk3KjRlflFWPaBtRKJj-97" value="return piso" style="html=1;verticalAlign=bottom;endArrow=open;dashed=1;endSize=8;curved=0;rounded=0;" edge="1" parent="1">
          <mxGeometry relative="1" as="geometry">
            <mxPoint x="1149.5000000000002" y="610" as="sourcePoint" />
            <mxPoint x="850" y="610" as="targetPoint" />
          </mxGeometry>
        </mxCell>
        <mxCell id="aVk3KjRlflFWPaBtRKJj-98" value="loop" style="shape=umlFrame;whiteSpace=wrap;html=1;pointerEvents=0;recursiveResize=0;container=1;collapsible=0;width=90;height=15;" vertex="1" parent="1">
          <mxGeometry x="810" y="530" width="400" height="120" as="geometry" />
        </mxCell>
      </root>
    </mxGraphModel>
  </diagram>
</mxfile>
